Bevan-IN.ufo
<glyph name="quotesingle" format="1">
  <advance width="459"/>
  <unicode hex="0027"/>
  <outline>
    <contour>
      <point x="41" y="1573" type="line"/>
      <point x="108.982" y="996" type="line"/>
      <point x="319.6" y="996" type="line"/>
      <point x="404.577" y="1573" type="line"/>
    </contour>
  </outline>
</glyph>
<glyph name="asterisk" format="1">
  <advance width="1039"/>
  <unicode hex="002A"/>
  <outline>
    <contour>
      <point x="475.063" y="909.195" type="line"/>
      <point x="421.886" y="832.649" type="line" smooth="yes"/>
      <point x="398.979" y="799.676"/>
      <point x="321.48" y="685.505"/>
      <point x="296.102" y="655.062" type="curve" smooth="yes"/>
      <point x="266.924" y="620.062" type="line"/>
      <point x="215.278" y="523.318"/>
      <point x="111.669" y="393.198"/>
      <point x="34.5889" y="560" type="curve" smooth="yes"/>
      <point x="-66.8405" y="779.495"/>
      <point x="304.629" y="845.307"/>
      <point x="438.051" y="895.321" type="curve" smooth="yes"/>
    </contour>
    <contour>
      <point x="516.687" y="870.975" type="line"/>
      <point x="537.881" y="781.989" type="line" smooth="yes"/>
      <point x="566.636" y="661.262"/>
      <point x="608.773" y="548.751"/>
      <point x="608.773" y="422" type="curve" smooth="yes"/>
      <point x="608.773" y="310.581"/>
      <point x="569.607" y="242"/>
      <point x="517.072" y="242" type="curve" smooth="yes"/>
      <point x="464.573" y="242"/>
      <point x="425.37" y="310.652"/>
      <point x="425.37" y="422" type="curve" smooth="yes"/>
      <point x="425.37" y="556.103"/>
      <point x="465.142" y="664.875"/>
      <point x="495.271" y="785.346" type="curve" smooth="yes"/>
    </contour>
    <contour>
      <point x="512.69" y="993.3" type="line"/>
      <point x="492.459" y="1090.37" type="line" smooth="yes"/>
      <point x="466.408" y="1215.37"/>
      <point x="422.869" y="1326.28"/>
      <point x="422.869" y="1454" type="curve" smooth="yes"/>
      <point x="422.869" y="1565.42"/>
      <point x="462.034" y="1634"/>
      <point x="514.571" y="1634" type="curve" smooth="yes"/>
      <point x="567.07" y="1634"/>
      <point x="606.272" y="1565.35"/>
      <point x="606.272" y="1454" type="curve" smooth="yes"/>
      <point x="606.272" y="1320.78"/>
      <point x="568.901" y="1218.05"/>
      <point x="538.038" y="1094.65" type="curve" smooth="yes"/>
    </contour>
    <contour>
      <point x="49.7705" y="1357.86" type="line"/>
      <point x="171.932" y="1518.53"/>
      <point x="379.292" y="1110.88"/>
      <point x="418.551" y="1045.35" type="curve"/>
      <point x="462.012" y="982.79" type="line"/>
      <point x="439.229" y="992.214" type="line" smooth="yes"/>
      <point x="310.616" y="1045.41"/>
      <point x="-81.0142" y="1117.21"/>
      <point x="37.2373" y="1328" type="curve"/>
    </contour>
    <contour>
      <point x="553.938" y="909.106" type="line"/>
      <point x="597.578" y="890.07" type="line" smooth="yes"/>
      <point x="730.601" y="832.046"/>
      <point x="1104.01" y="775.831"/>
      <point x="1003.64" y="553" type="curve" smooth="yes"/>
      <point x="892.718" y="306.755"/>
      <point x="690.015" y="718.67"/>
      <point x="628.549" y="804.69" type="curve" smooth="yes"/>
    </contour>
    <contour>
      <point x="539.851" y="961.199" type="line"/>
      <point x="608.825" y="1043.94" type="line"/>
      <point x="672.706" y="1132.64"/>
      <point x="896.093" y="1579.72"/>
      <point x="1001.64" y="1322" type="curve" smooth="yes"/>
      <point x="1096.53" y="1090.32"/>
      <point x="739.959" y="1046.93"/>
      <point x="597.808" y="986.029" type="curve" smooth="yes"/>
    </contour>
    <contour>
      <point x="131.538" y="1494.04" type="line"/>
      <point x="213.778" y="1608.47" type="line"/>
      <point x="42.2725" y="1481.98" type="line"/>
    </contour>
  </outline>
</glyph>
<glyph name="plus" format="1">
  <advance width="612"/>
  <unicode hex="002B"/>
  <outline>
    <contour>
      <point x="12" y="711" type="line"/>
      <point x="12" y="568" type="line"/>
      <point x="270.515" y="568" type="line"/>
      <point x="270.515" y="289" type="line"/>
      <point x="344.888" y="289" type="line"/>
      <point x="344.888" y="568" type="line"/>
      <point x="600" y="568" type="line"/>
      <point x="600" y="711" type="line"/>
      <point x="344.888" y="711" type="line"/>
      <point x="344.888" y="1000" type="line"/>
      <point x="270.515" y="1000" type="line"/>
      <point x="270.515" y="711" type="line"/>
    </contour>
  </outline>
</glyph>
<glyph name="one" format="1">
  <advance width="619"/>
  <unicode hex="0031"/>
  <outline>
    <contour>
      <point x="101.844" y="51" type="line"/>
      <point x="587" y="51" type="line"/>
      <point x="587" y="273" type="line"/>
      <point x="491.29" y="273" type="line"/>
      <point x="485.372" y="1309.63" type="line"/>
      <point x="27" y="1168.27" type="line"/>
      <point x="27" y="1001.31" type="line"/>
      <point x="191" y="1002.31" type="line"/>
      <point x="191" y="272.431" type="line"/>
      <point x="101.159" y="273.429" type="line"/>
    </contour>
  </outline>
</glyph>
<glyph name="two" format="1">
  <advance width="1043"/>
  <unicode hex="0032"/>
  <outline>
    <contour>
      <point x="34" y="945" type="curve" smooth="yes"/>
      <point x="34" y="1444.55"/>
      <point x="925" y="1475.22"/>
      <point x="925" y="921" type="curve" smooth="yes"/>
      <point x="925" y="673.837"/>
      <point x="671.531" y="483.042"/>
      <point x="529.656" y="358.245" type="curve" smooth="yes"/>
      <point x="424.786" y="266" type="line"/>
      <point x="688.451" y="266" type="line"/>
      <point x="773.719" y="270.235"/>
      <point x="902.254" y="285.303"/>
      <point x="931.713" y="414" type="curve"/>
      <point x="1008.55" y="414" type="line"/>
      <point x="1012.45" y="51" type="line"/>
      <point x="74" y="51" type="line"/>
      <point x="74" y="268.245" type="line"/>
      <point x="236.903" y="334.804"/>
      <point x="348.263" y="422.488"/>
      <point x="436.276" y="528.938" type="curve" smooth="yes"/>
      <point x="497.477" y="602.959"/>
      <point x="560.245" y="698.642"/>
      <point x="560.245" y="857" type="curve" smooth="yes"/>
      <point x="560.245" y="957.893"/>
      <point x="504.984" y="1080"/>
      <point x="403.979" y="1080" type="curve" smooth="yes"/>
      <point x="308.957" y="1080"/>
      <point x="245" y="991.799"/>
      <point x="245" y="887" type="curve" smooth="yes"/>
      <point x="245" y="838.567"/>
      <point x="266.396" y="795.554"/>
      <point x="285.015" y="765.02" type="curve"/>
      <point x="136.054" y="649.485" type="line"/>
      <point x="74.4277" y="718.271"/>
      <point x="34" y="818.565"/>
    </contour>
  </outline>
</glyph>
<glyph name="three" format="1">
  <advance width="997"/>
  <unicode hex="0033"/>
  <outline>
    <contour>
      <point x="572.972" y="811.445" type="line"/>
      <point x="673.281" y="800.209" type="line"/>
      <point x="816.827" y="786.169"/>
      <point x="966" y="637.23"/>
      <point x="966" y="473" type="curve" smooth="yes"/>
      <point x="966" y="170.65"/>
      <point x="719.016" y="33"/>
      <point x="435.164" y="33" type="curve" smooth="yes"/>
      <point x="279.158" y="33"/>
      <point x="149.475" y="45.9268"/>
      <point x="47" y="106.013" type="curve"/>
      <point x="47" y="325.038" type="line"/>
      <point x="151.187" y="259.961"/>
      <point x="256.714" y="227"/>
      <point x="349.943" y="227" type="curve" smooth="yes"/>
      <point x="440.55" y="227"/>
      <point x="571.517" y="267.363"/>
      <point x="571.517" y="425" type="curve" smooth="yes"/>
      <point x="571.517" y="598.225"/>
      <point x="432.622" y="643"/>
      <point x="329.652" y="643" type="curve" smooth="yes"/>
      <point x="302.404" y="643"/>
      <point x="272.116" y="633.777"/>
      <point x="244" y="628.004" type="curve"/>
      <point x="244" y="716.432" type="line"/>
      <point x="528.501" y="1007.43" type="line"/>
      <point x="528.501" y="1092" type="line"/>
      <point x="308.55" y="1092" type="line" smooth="yes"/>
      <point x="202.098" y="1092"/>
      <point x="160.383" y="1026"/>
      <point x="138.916" y="949.202" type="curve"/>
      <point x="35" y="949.737" type="line"/>
      <point x="35" y="1301" type="line"/>
      <point x="900" y="1301" type="line"/>
      <point x="900" y="1110.73" type="line"/>
      <point x="864.882" y="1080.69"/>
      <point x="776.244" y="1007.09"/>
      <point x="650.707" y="890.36" type="curve"/>
    </contour>
  </outline>
</glyph>
<glyph name="five" format="1">
  <advance width="853"/>
  <unicode hex="0035"/>
  <outline>
    <contour>
      <point x="444.739" y="888" type="curve" smooth="yes"/>
      <point x="631.367" y="888"/>
      <point x="823" y="728.609"/>
      <point x="823" y="511" type="curve" smooth="yes"/>
      <point x="823" y="183.069"/>
      <point x="596.331" y="31"/>
      <point x="333.232" y="31" type="curve" smooth="yes"/>
      <point x="247.564" y="31"/>
      <point x="98.2041" y="59.543"/>
      <point x="38" y="97.0352" type="curve"/>
      <point x="38" y="268.588" type="line"/>
      <point x="84.6309" y="250.695"/>
      <point x="146.451" y="229"/>
      <point x="199" y="229" type="curve" smooth="yes"/>
      <point x="309.984" y="229"/>
      <point x="427.642" y="285.476"/>
      <point x="427.642" y="445" type="curve" smooth="yes"/>
      <point x="427.642" y="613.787"/>
      <point x="295.187" y="668"/>
      <point x="174" y="668" type="curve" smooth="yes"/>
      <point x="126.502" y="668"/>
      <point x="79.8916" y="656.915"/>
      <point x="36" y="636.277" type="curve"/>
      <point x="36" y="1307" type="line"/>
      <point x="748" y="1307" type="line"/>
      <point x="748" y="1112" type="line"/>
      <point x="239" y="1112" type="line"/>
      <point x="239" y="862.191" type="line"/>
      <point x="312.46" y="875.641" type="line" smooth="yes"/>
      <point x="341.721" y="881.938"/>
      <point x="403.712" y="888"/>
    </contour>
  </outline>
</glyph>
<glyph name="seven" format="1">
  <advance width="995"/>
  <unicode hex="0037"/>
  <outline>
    <contour>
      <point x="583.473" y="1071" type="line"/>
      <point x="320.303" y="1071" type="line" smooth="yes"/>
      <point x="231.3" y="1071"/>
      <point x="163.256" y="1025.6"/>
      <point x="150.834" y="928.222" type="curve"/>
      <point x="32" y="928.767" type="line"/>
      <point x="32" y="1286" type="line"/>
      <point x="971" y="1286" type="line"/>
      <point x="971" y="1078.89" type="line"/>
      <point x="512.723" y="51" type="line"/>
      <point x="148.158" y="51" type="line"/>
    </contour>
  </outline>
</glyph>
<glyph name="nine" format="1">
  <advance width="1104"/>
  <unicode hex="0039"/>
  <outline>
    <contour>
      <point x="28" y="781" type="curve" smooth="yes"/>
      <point x="28" y="1098.92"/>
      <point x="280.7" y="1316"/>
      <point x="565.522" y="1316" type="curve" smooth="yes"/>
      <point x="837.96" y="1316"/>
      <point x="1076" y="1117.9"/>
      <point x="1076" y="811" type="curve" smooth="yes"/>
      <point x="1076" y="738.68"/>
      <point x="1048.74" y="650.993"/>
      <point x="1021.87" y="594.758" type="curve" smooth="yes"/>
      <point x="919.034" y="379.491"/>
      <point x="754.72" y="217.013"/>
      <point x="612.808" y="49.0781" type="curve"/>
      <point x="280.286" y="50.541" type="line"/>
      <point x="339.641" y="121.579"/>
      <point x="424.895" y="225.495"/>
      <point x="466.931" y="289.795" type="curve" smooth="yes"/>
      <point x="520.674" y="372" type="line"/>
      <point x="432.841" y="372" type="line" smooth="yes"/>
      <point x="218.571" y="372"/>
      <point x="28" y="546.378"/>
    </contour>
    <contour>
      <point x="556.225" y="520" type="curve" smooth="yes"/>
      <point x="656.806" y="520"/>
      <point x="682.145" y="649.4"/>
      <point x="682.145" y="788" type="curve" smooth="yes"/>
      <point x="682.145" y="852.468"/>
      <point x="683.865" y="1061"/>
      <point x="557.916" y="1061" type="curve" smooth="yes"/>
      <point x="451.902" y="1061"/>
      <point x="421.01" y="929.574"/>
      <point x="421.01" y="780" type="curve" smooth="yes"/>
      <point x="421.01" y="641.673"/>
      <point x="453.606" y="520"/>
    </contour>
  </outline>
</glyph>
<glyph name="D" format="1">
  <advance width="1547"/>
  <unicode hex="0044"/>
  <outline>
    <contour>
      <point x="1502" y="847" type="curve" smooth="yes"/>
      <point x="1502" y="379.584"/>
      <point x="1193.7" y="102"/>
      <point x="761.735" y="102" type="curve" smooth="yes"/>
      <point x="60" y="102" type="line"/>
      <point x="60" y="359" type="line"/>
      <point x="223" y="359" type="line"/>
      <point x="223" y="1343" type="line"/>
      <point x="54" y="1343" type="line"/>
      <point x="54" y="1593" type="line"/>
      <point x="781.615" y="1593" type="line" smooth="yes"/>
      <point x="1246.03" y="1593"/>
      <point x="1502" y="1354.88"/>
    </contour>
    <contour>
      <point x="1033.73" y="848" type="curve" smooth="yes"/>
      <point x="1033.73" y="1088.13"/>
      <point x="979.934" y="1343"/>
      <point x="721.071" y="1343" type="curve" smooth="yes"/>
      <point x="632.515" y="1343" type="line"/>
      <point x="632.515" y="359" type="line"/>
      <point x="710.227" y="359" type="line" smooth="yes"/>
      <point x="965.241" y="359"/>
      <point x="1033.73" y="607.074"/>
    </contour>
  </outline>
</glyph>
<glyph name="I" format="1">
  <advance width="736"/>
  <unicode hex="0049"/>
  <outline>
    <contour>
      <point x="700" y="1342" type="line"/>
      <point x="700" y="1593" type="line"/>
      <point x="40" y="1593" type="line"/>
      <point x="40" y="1342" type="line"/>
      <point x="183" y="1342" type="line"/>
      <point x="183" y="359" type="line"/>
      <point x="36" y="359" type="line"/>
      <point x="36" y="102" type="line"/>
      <point x="694" y="102" type="line"/>
      <point x="694" y="359" type="line"/>
      <point x="553" y="359" type="line"/>
      <point x="553" y="1342" type="line"/>
    </contour>
  </outline>
</glyph>
<glyph name="P" format="1">
  <advance width="1402"/>
  <unicode hex="0050"/>
  <outline>
    <contour>
      <point x="797.893" y="1542" type="line" smooth="yes"/>
      <point x="1122.29" y="1542"/>
      <point x="1377" y="1454.54"/>
      <point x="1377" y="1133" type="curve" smooth="yes"/>
      <point x="1377" y="744.996"/>
      <point x="1170.77" y="610"/>
      <point x="805.909" y="610" type="curve" smooth="yes"/>
      <point x="761.969" y="610"/>
      <point x="720.001" y="613.704"/>
      <point x="677.934" y="619.606" type="curve" smooth="yes"/>
      <point x="626.872" y="626.771" type="line"/>
      <point x="626.872" y="359" type="line"/>
      <point x="756.919" y="359" type="line"/>
      <point x="756.919" y="102" type="line"/>
      <point x="54" y="102" type="line"/>
      <point x="54" y="359" type="line"/>
      <point x="210" y="359" type="line"/>
      <point x="210" y="1291" type="line"/>
      <point x="59" y="1291" type="line"/>
      <point x="59" y="1542" type="line"/>
    </contour>
    <contour>
      <point x="709.71" y="834" type="line" smooth="yes"/>
      <point x="861.59" y="834"/>
      <point x="957.334" y="923.195"/>
      <point x="957.334" y="1086" type="curve" smooth="yes"/>
      <point x="957.334" y="1225.22"/>
      <point x="855.775" y="1291"/>
      <point x="748.012" y="1291" type="curve" smooth="yes"/>
      <point x="627.763" y="1291" type="line"/>
      <point x="627.763" y="834" type="line"/>
    </contour>
  </outline>
</glyph>
<glyph name="Q" format="1">
  <advance width="1578"/>
  <unicode hex="0051"/>
  <outline>
    <contour>
      <point x="971.891" y="52" type="line"/>
      <point x="909.519" y="34.4994"/>
      <point x="841.697" y="22"/>
      <point x="765.414" y="22" type="curve" smooth="yes"/>
      <point x="544.181" y="22"/>
      <point x="377.247" y="118.392"/>
      <point x="259.891" y="242.231" type="curve" smooth="yes"/>
      <point x="138.743" y="370.072"/>
      <point x="45" y="555.286"/>
      <point x="45" y="798" type="curve" smooth="yes"/>
      <point x="45" y="1283"/>
      <point x="326.843" y="1572"/>
      <point x="765.414" y="1572" type="curve" smooth="yes"/>
      <point x="1205.18" y="1572"/>
      <point x="1481" y="1282.06"/>
      <point x="1481" y="798" type="curve" smooth="yes"/>
      <point x="1481" y="628.693"/>
      <point x="1438.05" y="494.259"/>
      <point x="1373.98" y="384.756" type="curve" smooth="yes"/>
      <point x="1305.52" y="267.748" type="line"/>
      <point x="1429.28" y="309" type="line"/>
      <point x="1533" y="309" type="line"/>
      <point x="1533" y="52" type="line"/>
    </contour>
    <contour>
      <point x="765.414" y="1311" type="curve" smooth="yes"/>
      <point x="543.516" y="1311"/>
      <point x="519.578" y="982.366"/>
      <point x="519.578" y="806" type="curve" smooth="yes"/>
      <point x="519.578" y="630.453"/>
      <point x="541.89" y="267"/>
      <point x="765.414" y="267" type="curve" smooth="yes"/>
      <point x="988.826" y="267"/>
      <point x="1011.25" y="631.582"/>
      <point x="1011.25" y="806" type="curve" smooth="yes"/>
      <point x="1011.25" y="982.971"/>
      <point x="986.993" y="1311"/>
    </contour>
  </outline>
</glyph>
<glyph name="S" format="1">
  <advance width="1114"/>
  <unicode hex="0053"/>
  <outline>
    <contour>
      <point x="539.871" y="587.164" type="curve" smooth="yes"/>
      <point x="273.821" y="673.693"/>
      <point x="33" y="769.376"/>
      <point x="33" y="1133" type="curve" smooth="yes"/>
      <point x="33" y="1387.4"/>
      <point x="196.002" y="1572"/>
      <point x="413.408" y="1572" type="curve" smooth="yes"/>
      <point x="541.764" y="1572"/>
      <point x="641.667" y="1543.03"/>
      <point x="715.588" y="1489.5" type="curve" smooth="yes"/>
      <point x="761.86" y="1456" type="line"/>
      <point x="778.855" y="1516.3" type="line" smooth="yes"/>
      <point x="779.829" y="1518.94"/>
      <point x="784.344" y="1529.23"/>
      <point x="790.575" y="1542" type="curve"/>
      <point x="987" y="1542" type="line"/>
      <point x="987" y="1168" type="line"/>
      <point x="772.599" y="1168" type="line"/>
      <point x="722.932" y="1265.9"/>
      <point x="651.177" y="1326"/>
      <point x="521.641" y="1326" type="curve" smooth="yes"/>
      <point x="453.846" y="1326"/>
      <point x="380.431" y="1285.51"/>
      <point x="380.431" y="1183" type="curve" smooth="yes"/>
      <point x="380.431" y="1068.5"/>
      <point x="489.679" y="1043.23"/>
      <point x="526.172" y="1031.72" type="curve" smooth="yes"/>
      <point x="807.701" y="942.938"/>
      <point x="1083" y="878.79"/>
      <point x="1083" y="501" type="curve" smooth="yes"/>
      <point x="1083" y="213.784"/>
      <point x="908.284" y="22"/>
      <point x="659.468" y="22" type="curve" smooth="yes"/>
      <point x="525.519" y="22"/>
      <point x="464.507" y="61.9004"/>
      <point x="389.395" y="132.029" type="curve" smooth="yes"/>
      <point x="343.721" y="174.674" type="line"/>
      <point x="302.801" y="51" type="line"/>
      <point x="70" y="51" type="line"/>
      <point x="70" y="437" type="line"/>
      <point x="302.699" y="437" type="line"/>
      <point x="345.963" y="331.608"/>
      <point x="430.917" y="283"/>
      <point x="546.162" y="283" type="curve" smooth="yes"/>
      <point x="600.341" y="283"/>
      <point x="706.82" y="304.721"/>
      <point x="706.82" y="420" type="curve" smooth="yes"/>
      <point x="706.82" y="552.702"/>
      <point x="580.839" y="573.802"/>
    </contour>
  </outline>
</glyph>
<glyph name="V" format="1">
  <advance width="1539"/>
  <unicode hex="0056"/>
  <outline>
    <contour>
      <point x="621.98" y="1291" type="line"/>
      <point x="869.315" y="314.939" type="line"/>
      <point x="1083.67" y="1290" type="line"/>
      <point x="953.209" y="1290" type="line"/>
      <point x="953.209" y="1541" type="line"/>
      <point x="1513" y="1541" type="line"/>
      <point x="1513" y="1291" type="line"/>
      <point x="1346.83" y="1291" type="line"/>
      <point x="977.548" y="51" type="line"/>
      <point x="516.291" y="51" type="line"/>
      <point x="180.27" y="1291" type="line"/>
      <point x="27" y="1291" type="line"/>
      <point x="27" y="1541" type="line"/>
      <point x="741.884" y="1541" type="line"/>
      <point x="741.884" y="1291" type="line"/>
    </contour>
  </outline>
</glyph>
<glyph name="X" format="1">
  <advance width="1717"/>
  <unicode hex="0058"/>
  <outline>
    <contour>
      <point x="460.622" y="358" type="line"/>
      <point x="558.484" y="358" type="line" smooth="yes"/>
      <point x="577.186" y="358"/>
      <point x="583.898" y="359"/>
      <point x="604.428" y="359" type="curve" smooth="yes"/>
      <point x="716.532" y="359" type="line"/>
      <point x="716.532" y="102" type="line"/>
      <point x="35" y="102" type="line"/>
      <point x="35" y="358" type="line"/>
      <point x="165.77" y="358" type="line"/>
      <point x="616.465" y="893.667" type="line"/>
      <point x="228.182" y="1342" type="line"/>
      <point x="86" y="1342" type="line"/>
      <point x="86" y="1593" type="line"/>
      <point x="851.608" y="1593" type="line"/>
      <point x="851.608" y="1342" type="line"/>
      <point x="723.591" y="1342" type="line"/>
      <point x="973.643" y="1012.76" type="line"/>
      <point x="1202.09" y="1342" type="line"/>
      <point x="1022.52" y="1342" type="line"/>
      <point x="1022.52" y="1593" type="line"/>
      <point x="1631" y="1593" type="line"/>
      <point x="1631" y="1342" type="line"/>
      <point x="1459.96" y="1342" type="line"/>
      <point x="1113.36" y="856.516" type="line"/>
      <point x="1559.16" y="359" type="line"/>
      <point x="1682" y="359" type="line"/>
      <point x="1682" y="102" type="line"/>
      <point x="902.147" y="102" type="line"/>
      <point x="902.147" y="359" type="line"/>
      <point x="1080.45" y="359" type="line"/>
      <point x="744.799" y="742.325" type="line"/>
    </contour>
  </outline>
</glyph>
<glyph name="Y" format="1">
  <advance width="1431"/>
  <unicode hex="0059"/>
  <outline>
    <contour>
      <point x="896.968" y="1342" type="line"/>
      <point x="896.968" y="1592" type="line"/>
      <point x="1402" y="1592" type="line"/>
      <point x="1402" y="1342" type="line"/>
      <point x="1244.53" y="1342" type="line"/>
      <point x="939.098" y="768.647" type="line"/>
      <point x="939.098" y="359" type="line"/>
      <point x="1079.83" y="359" type="line"/>
      <point x="1079.83" y="102" type="line"/>
      <point x="392.299" y="102" type="line"/>
      <point x="392.299" y="359" type="line"/>
      <point x="531.24" y="359" type="line"/>
      <point x="531.24" y="719.375" type="line"/>
      <point x="115.209" y="1342" type="line"/>
      <point x="28" y="1342" type="line"/>
      <point x="28" y="1592" type="line"/>
      <point x="725.757" y="1592" type="line"/>
      <point x="725.757" y="1342" type="line"/>
      <point x="603.144" y="1342" type="line"/>
      <point x="858.602" y="926.203" type="line"/>
      <point x="1059.62" y="1342" type="line"/>
    </contour>
  </outline>
</glyph>
<glyph name="a" format="1">
  <advance width="1094"/>
  <unicode hex="0061"/>
  <outline>
    <contour>
      <point x="1047" y="0" type="line"/>
      <point x="1047" y="93" type="line"/>
      <point x="886" y="93" type="line"/>
      <point x="886" y="584" type="line" smooth="yes"/>
      <point x="886" y="901"/>
      <point x="719" y="989"/>
      <point x="506" y="989" type="curve" smooth="yes"/>
      <point x="378" y="989"/>
      <point x="265" y="944"/>
      <point x="184" y="911" type="curve"/>
      <point x="184" y="708" type="line"/>
      <point x="261" y="708" type="line"/>
      <point x="261" y="749"/>
      <point x="284" y="914"/>
      <point x="505" y="914" type="curve" smooth="yes"/>
      <point x="712" y="914"/>
      <point x="742" y="801"/>
      <point x="742" y="586" type="curve" smooth="yes"/>
      <point x="742" y="478" type="line"/>
      <point x="667" y="515"/>
      <point x="543" y="528"/>
      <point x="460" y="528" type="curve" smooth="yes"/>
      <point x="276" y="528"/>
      <point x="111" y="437"/>
      <point x="111" y="261" type="curve" smooth="yes"/>
      <point x="111" y="99"/>
      <point x="228" y="-18"/>
      <point x="429" y="-18" type="curve" smooth="yes"/>
      <point x="605" y="-18"/>
      <point x="731" y="81"/>
      <point x="749" y="125" type="curve"/>
      <point x="749" y="125"/>
      <point x="799" y="0"/>
      <point x="797" y="0" type="curve"/>
    </contour>
    <contour>
      <point x="447" y="75" type="curve" smooth="yes"/>
      <point x="288" y="75"/>
      <point x="235" y="179"/>
      <point x="235" y="260" type="curve" smooth="yes"/>
      <point x="235" y="356"/>
      <point x="275" y="448"/>
      <point x="504" y="448" type="curve" smooth="yes"/>
      <point x="564" y="448"/>
      <point x="655" y="439"/>
      <point x="742" y="417" type="curve"/>
      <point x="742" y="188" type="line"/>
      <point x="666" y="114"/>
      <point x="564" y="75"/>
    </contour>
  </outline>
</glyph>
<glyph name="d" format="1">
  <advance width="1224"/>
  <unicode hex="0064"/>
  <outline>
    <contour>
      <point x="423.935" y="84" type="curve" smooth="yes"/>
      <point x="172.97" y="84"/>
      <point x="34" y="303.549"/>
      <point x="34" y="601" type="curve" smooth="yes"/>
      <point x="34" y="880.367"/>
      <point x="180.291" y="1091"/>
      <point x="416.997" y="1091" type="curve" smooth="yes"/>
      <point x="532.504" y="1091"/>
      <point x="587.906" y="1044.81"/>
      <point x="648.504" y="974.938" type="curve" smooth="yes"/>
      <point x="724.011" y="887.875" type="line"/>
      <point x="724.011" y="1324" type="line"/>
      <point x="590.451" y="1324" type="line"/>
      <point x="590.451" y="1499.91" type="line"/>
      <point x="1075" y="1554.57" type="line"/>
      <point x="1075" y="301" type="line"/>
      <point x="1192" y="301" type="line"/>
      <point x="1192" y="102" type="line"/>
      <point x="724.011" y="102" type="line"/>
      <point x="724.011" y="331.335" type="line"/>
      <point x="644.465" y="209.707" type="line" smooth="yes"/>
      <point x="599.867" y="141.516"/>
      <point x="526.037" y="84"/>
    </contour>
    <contour>
      <point x="562.698" y="243" type="curve" smooth="yes"/>
      <point x="645.03" y="243"/>
      <point x="693.663" y="298.706"/>
      <point x="724.011" y="355.564" type="curve"/>
      <point x="724.011" y="727.465" type="line"/>
      <point x="691.323" y="772.693"/>
      <point x="643.939" y="830"/>
      <point x="562.698" y="830" type="curve" smooth="yes"/>
      <point x="424.685" y="830"/>
      <point x="386.642" y="675.75"/>
      <point x="386.642" y="558" type="curve" smooth="yes"/>
      <point x="386.642" y="436.314"/>
      <point x="405.619" y="243"/>
    </contour>
  </outline>
</glyph>
<glyph name="i" format="1">
  <advance width="416.0"/>
  <unicode hex="0069"/>
  <outline>
    <contour>
      <point x="128.0" y="92.0" type="line"/>
      <point x="-32.0" y="92.0" type="line"/>
      <point x="-32.0" y="0.0" type="line"/>
      <point x="416.0" y="0.0" type="line"/>
      <point x="416.0" y="92.0" type="line"/>
      <point x="256.0" y="92.0" type="line"/>
      <point x="256.0" y="1020.0" type="line"/>
      <point x="-32.0" y="966.0" type="line"/>
      <point x="-32.0" y="874.0" type="line"/>
      <point x="128.0" y="874.0" type="line"/>
    </contour>
    <contour>
      <point x="142.0" y="1182" type="curve" smooth="yes"/>
      <point x="211.0" y="1182"/>
      <point x="256.0" y="1218"/>
      <point x="256.0" y="1285" type="curve" smooth="yes"/>
      <point x="256.0" y="1351"/>
      <point x="212.0" y="1390"/>
      <point x="142.0" y="1390" type="curve" smooth="yes"/>
      <point x="73.0" y="1390"/>
      <point x="32.0" y="1351"/>
      <point x="32.0" y="1285" type="curve" smooth="yes"/>
      <point x="32.0" y="1218"/>
      <point x="75.0" y="1182"/>
    </contour>
  </outline>
</glyph>
<glyph name="j" format="1">
  <advance width="590"/>
  <unicode hex="006A"/>
  <outline>
    <contour>
      <point x="32" y="-172.653" type="line"/>
      <point x="83.831" y="-168.624"/>
      <point x="169" y="-144.922"/>
      <point x="169" y="-60" type="curve" smooth="yes"/>
      <point x="169" y="761" type="line"/>
      <point x="39" y="761" type="line"/>
      <point x="39" y="911.017" type="line"/>
      <point x="554" y="964.437" type="line"/>
      <point x="554" y="78" type="line" smooth="yes"/>
      <point x="554" y="-275.774"/>
      <point x="385.139" y="-386.662"/>
      <point x="32" y="-397.264" type="curve"/>
    </contour>
    <contour>
      <point x="95" y="1436" type="curve" smooth="yes"/>
      <point x="95" y="1562.4"/>
      <point x="180.39" y="1630"/>
      <point x="321" y="1630" type="curve" smooth="yes"/>
      <point x="467.241" y="1630"/>
      <point x="557" y="1563.11"/>
      <point x="557" y="1436" type="curve" smooth="yes"/>
      <point x="557" y="1308.68"/>
      <point x="464.198" y="1237"/>
      <point x="321" y="1237" type="curve" smooth="yes"/>
      <point x="182.526" y="1237"/>
      <point x="95" y="1310.02"/>
    </contour>
  </outline>
</glyph>
<glyph name="k" format="1">
  <advance width="1229"/>
  <unicode hex="006B"/>
  <outline>
    <contour>
      <point x="814.721" y="51" type="line"/>
      <point x="548.582" y="523.856" type="line"/>
      <point x="836.497" y="812" type="line"/>
      <point x="680.077" y="812" type="line"/>
      <point x="680.077" y="1021" type="line"/>
      <point x="1171" y="1021" type="line"/>
      <point x="1171" y="812" type="line"/>
      <point x="1032.64" y="812" type="line"/>
      <point x="974.062" y="763.54"/>
      <point x="910.299" y="705.253"/>
      <point x="859.174" y="657.754" type="curve" smooth="yes"/>
      <point x="828.017" y="628.807" type="line"/>
      <point x="1057.39" y="250" type="line"/>
      <point x="1189" y="250" type="line"/>
      <point x="1189" y="51" type="line"/>
    </contour>
    <contour>
      <point x="44" y="1500.3" type="line"/>
      <point x="500.159" y="1554.08" type="line"/>
      <point x="500.159" y="102" type="line"/>
      <point x="45" y="102" type="line"/>
      <point x="45" y="301" type="line"/>
      <point x="148" y="301" type="line"/>
      <point x="148" y="1324" type="line"/>
      <point x="44" y="1324" type="line"/>
    </contour>
  </outline>
</glyph>
<glyph name="n" format="1">
  <advance width="1120.0"/>
  <unicode hex="006E"/>
  <outline>
    <contour>
      <point x="0.0" y="0" type="line"/>
      <point x="448.0" y="0" type="line"/>
      <point x="448.0" y="92" type="line"/>
      <point x="288.0" y="92" type="line"/>
      <point x="288.0" y="645" type="line" smooth="yes"/>
      <point x="288.0" y="730"/>
      <point x="451.0" y="893"/>
      <point x="623.0" y="893" type="curve" smooth="yes"/>
      <point x="771.0" y="893"/>
      <point x="832.0" y="811"/>
      <point x="832.0" y="648" type="curve" smooth="yes"/>
      <point x="832.0" y="0" type="line"/>
      <point x="1152.0" y="0" type="line"/>
      <point x="1152.0" y="92" type="line"/>
      <point x="960.0" y="92" type="line"/>
      <point x="960.0" y="659" type="line" smooth="yes"/>
      <point x="960.0" y="901"/>
      <point x="839.0" y="989"/>
      <point x="655.0" y="989" type="curve" smooth="yes"/>
      <point x="519.0" y="989"/>
      <point x="346.0" y="908"/>
      <point x="288.0" y="772" type="curve"/>
      <point x="288.0" y="984" type="line"/>
      <point x="0.0" y="935" type="line"/>
      <point x="0.0" y="851" type="line"/>
      <point x="160.0" y="851" type="line"/>
      <point x="160.0" y="92" type="line"/>
      <point x="0.0" y="92" type="line"/>
    </contour>
  </outline>
</glyph>
<glyph name="s" format="1">
  <advance width="977"/>
  <unicode hex="0073"/>
  <outline>
    <contour>
      <point x="549.032" y="941" type="curve" smooth="yes"/>
      <point x="515.355" y="941"/>
      <point x="454.481" y="922.86"/>
      <point x="454.481" y="843" type="curve" smooth="yes"/>
      <point x="454.481" y="759.717"/>
      <point x="518.324" y="731.402"/>
      <point x="537.787" y="719.369" type="curve" smooth="yes"/>
      <point x="691.315" y="624.447"/>
      <point x="888" y="588.299"/>
      <point x="888" y="358" type="curve" smooth="yes"/>
      <point x="888" y="149.435"/>
      <point x="724.9" y="33"/>
      <point x="533.019" y="33" type="curve" smooth="yes"/>
      <point x="426.416" y="33"/>
      <point x="344.022" y="71.71"/>
      <point x="266.003" y="131.95" type="curve"/>
      <point x="211.802" y="169.423" type="line"/>
      <point x="168.38" y="51" type="line"/>
      <point x="69" y="51" type="line"/>
      <point x="69" y="345" type="line"/>
      <point x="214.647" y="345" type="line"/>
      <point x="242.855" y="250.643"/>
      <point x="316.745" y="147"/>
      <point x="414.831" y="147" type="curve" smooth="yes"/>
      <point x="465.463" y="147"/>
      <point x="509.381" y="194.511"/>
      <point x="509.381" y="268" type="curve" smooth="yes"/>
      <point x="509.381" y="349.949"/>
      <point x="452.089" y="384.79"/>
      <point x="429.572" y="400.821" type="curve" smooth="yes"/>
      <point x="293.498" y="497.698"/>
      <point x="70" y="543.018"/>
      <point x="70" y="755" type="curve" smooth="yes"/>
      <point x="70" y="937.713"/>
      <point x="263.177" y="1040"/>
      <point x="445.331" y="1040" type="curve" smooth="yes"/>
      <point x="531.325" y="1040"/>
      <point x="598.915" y="1008.21"/>
      <point x="660.026" y="961.717" type="curve"/>
      <point x="713.689" y="928.274" type="line"/>
      <point x="746.904" y="1021" type="line"/>
      <point x="837" y="1021" type="line"/>
      <point x="837" y="803" type="line"/>
      <point x="711.351" y="803" type="line"/>
      <point x="682.316" y="865.511"/>
      <point x="632.652" y="941"/>
    </contour>
  </outline>
</glyph>
<glyph name="u" format="1">
  <advance width="1262"/>
  <unicode hex="0075"/>
  <outline>
    <contour>
      <point x="499.838" y="394" type="line" smooth="yes"/>
      <point x="499.838" y="317.958"/>
      <point x="545.735" y="243"/>
      <point x="623.071" y="243" type="curve" smooth="yes"/>
      <point x="703.756" y="243"/>
      <point x="757.666" y="316.966"/>
      <point x="757.666" y="402" type="curve" smooth="yes"/>
      <point x="757.666" y="812" type="line"/>
      <point x="671.141" y="812" type="line"/>
      <point x="671.141" y="985.955" type="line"/>
      <point x="1110" y="1035.51" type="line"/>
      <point x="1110" y="250" type="line"/>
      <point x="1230" y="250" type="line"/>
      <point x="1230" y="51" type="line"/>
      <point x="758.54" y="51" type="line"/>
      <point x="758.54" y="329.032" type="line"/>
      <point x="676.519" y="183.661" type="line" smooth="yes"/>
      <point x="626.672" y="95.3164"/>
      <point x="537.462" y="33"/>
      <point x="401.077" y="33" type="curve" smooth="yes"/>
      <point x="220.772" y="33"/>
      <point x="147" y="149.663"/>
      <point x="147" y="385" type="curve" smooth="yes"/>
      <point x="147" y="812" type="line"/>
      <point x="31" y="812" type="line"/>
      <point x="31" y="985.823" type="line"/>
      <point x="499.838" y="1035.67" type="line"/>
    </contour>
  </outline>
</glyph>
<glyph name="z" format="1">
  <advance width="1003"/>
  <unicode hex="007A"/>
  <outline>
    <contour>
      <point x="174.95" y="687" type="line"/>
      <point x="62" y="687" type="line"/>
      <point x="62" y="1021" type="line"/>
      <point x="880" y="1021" type="line"/>
      <point x="880" y="815.146" type="line"/>
      <point x="412.022" y="243" type="line"/>
      <point x="789.883" y="243" type="line"/>
      <point x="824.883" y="400" type="line"/>
      <point x="916" y="400" type="line"/>
      <point x="916" y="51" type="line"/>
      <point x="35" y="51" type="line"/>
      <point x="35" y="261.936" type="line"/>
      <point x="534.36" y="830" type="line"/>
      <point x="238.95" y="830" type="line"/>
    </contour>
  </outline>
</glyph>
<glyph name="yen" format="1">
  <advance width="1458"/>
  <unicode hex="00A5"/>
  <outline>
    <contour>
      <point x="905.016" y="964.824" type="line" smooth="yes"/>
      <point x="973.722" y="1080.46"/>
      <point x="1014.83" y="1157.36"/>
      <point x="1014.83" y="1221" type="curve" smooth="yes"/>
      <point x="1014.83" y="1301.43"/>
      <point x="951.482" y="1322.26"/>
      <point x="909.937" y="1323.11" type="curve"/>
      <point x="909.937" y="1571" type="line"/>
      <point x="1415" y="1571" type="line"/>
      <point x="1415" y="1323" type="line"/>
      <point x="1392" y="1323" type="line" smooth="yes"/>
      <point x="1225.3" y="1323"/>
      <point x="1179.76" y="1192.8"/>
      <point x="1138.5" y="1120.35" type="curve" smooth="yes"/>
      <point x="1003.34" y="883" type="line"/>
      <point x="1337" y="883" type="line"/>
      <point x="1337" y="811" type="line"/>
      <point x="948.487" y="811" type="line"/>
      <point x="948.487" y="577" type="line"/>
      <point x="1337" y="577" type="line"/>
      <point x="1337" y="505" type="line"/>
      <point x="948.487" y="505" type="line"/>
      <point x="948.487" y="318" type="line"/>
      <point x="1089.24" y="318" type="line"/>
      <point x="1089.24" y="49" type="line"/>
      <point x="401.623" y="49" type="line"/>
      <point x="401.623" y="318" type="line"/>
      <point x="540.58" y="318" type="line"/>
      <point x="540.58" y="505" type="line"/>
      <point x="148" y="505" type="line"/>
      <point x="148" y="577" type="line"/>
      <point x="540.58" y="577" type="line"/>
      <point x="540.58" y="686.076" type="line"/>
      <point x="462.185" y="811" type="line"/>
      <point x="148.877" y="811" type="line"/>
      <point x="150.138" y="885" type="line"/>
      <point x="419.383" y="885" type="line"/>
      <point x="127.592" y="1325" type="line"/>
      <point x="40" y="1325" type="line"/>
      <point x="40" y="1571" type="line"/>
      <point x="737.81" y="1571" type="line"/>
      <point x="737.81" y="1325" type="line"/>
      <point x="611.723" y="1325" type="line"/>
      <point x="665.08" y="1243.84" type="line" smooth="yes"/>
      <point x="713.154" y="1170.72"/>
      <point x="779.085" y="1045.46"/>
      <point x="829.229" y="964.107" type="curve" smooth="yes"/>
      <point x="867.599" y="901.853" type="line"/>
    </contour>
  </outline>
</glyph>
<glyph name="logicalnot" format="1">
  <advance width="933"/>
  <unicode hex="00AC"/>
  <outline>
    <contour>
      <point x="56" y="1041" type="line"/>
      <point x="56.6914" y="812" type="line"/>
      <point x="733.846" y="812" type="line"/>
      <point x="733.846" y="593" type="line"/>
      <point x="862.846" y="593" type="line"/>
      <point x="862.846" y="1041" type="line"/>
    </contour>
  </outline>
</glyph>
<glyph name="threesuperior" format="1">
  <advance width="565"/>
  <unicode hex="00B3"/>
  <outline>
    <contour>
      <point x="306.043" y="939" type="line" smooth="yes"/>
      <point x="246.704" y="939"/>
      <point x="205.112" y="899.396"/>
      <point x="190.729" y="856.341" type="curve"/>
      <point x="167.011" y="856.551" type="line"/>
      <point x="167.011" y="1020" type="line"/>
      <point x="589.011" y="1020" type="line"/>
      <point x="589.011" y="940.572" type="line"/>
      <point x="564.085" y="919.825"/>
      <point x="506.811" y="888.141"/>
      <point x="440.665" y="818.43" type="curve" smooth="yes"/>
      <point x="365.863" y="739.596" type="line"/>
      <point x="468.341" y="728.214" type="line"/>
      <point x="551.957" y="720.525"/>
      <point x="628.011" y="643.551"/>
      <point x="628.011" y="558" type="curve" smooth="yes"/>
      <point x="628.011" y="397.538"/>
      <point x="500.555" y="321"/>
      <point x="346.052" y="321" type="curve" smooth="yes"/>
      <point x="302.587" y="321"/>
      <point x="227.625" y="329.682"/>
      <point x="174.011" y="355.623" type="curve"/>
      <point x="174.011" y="431.951" type="line"/>
      <point x="227.068" y="404.546"/>
      <point x="282.663" y="390"/>
      <point x="319.09" y="390" type="curve" smooth="yes"/>
      <point x="347.524" y="390"/>
      <point x="419.011" y="416.59"/>
      <point x="419.011" y="528" type="curve" smooth="yes"/>
      <point x="419.011" y="647.636"/>
      <point x="345.382" y="677"/>
      <point x="312.567" y="677" type="curve" smooth="yes"/>
      <point x="306.685" y="677"/>
      <point x="298.216" y="674.659"/>
      <point x="288.011" y="672.752" type="curve"/>
      <point x="288.011" y="688.416" type="line"/>
      <point x="386.011" y="858.416" type="line"/>
      <point x="386.011" y="939" type="line"/>
    </contour>
    <contour>
      <point x="174.011" y="551.898" type="move"/>
      <point x="174.011" y="745.039" type="line"/>
      <point x="58" y="513.018" type="line"/>
      <point x="71.7402" y="501.974" type="line"/>
    </contour>
  </outline>
</glyph>
<glyph name="guillemotright" format="1">
  <advance width="1107"/>
  <unicode hex="00BB"/>
  <outline>
    <contour>
      <point x="493.029" y="420.921" type="line"/>
      <point x="493.029" y="647.079" type="line"/>
      <point x="163.549" y="998.995" type="line"/>
      <point x="38" y="851.754" type="line"/>
      <point x="343.816" y="534" type="line"/>
      <point x="38" y="216.246" type="line"/>
      <point x="163.549" y="69.0049" type="line"/>
    </contour>
    <contour>
      <point x="1042.63" y="420.921" type="line"/>
      <point x="1042.63" y="647.079" type="line"/>
      <point x="692.33" y="998.995" type="line"/>
      <point x="587.6" y="851.754" type="line"/>
      <point x="863.754" y="534" type="line"/>
      <point x="587.6" y="216.246" type="line"/>
      <point x="692.33" y="69.0049" type="line"/>
    </contour>
  </outline>
</glyph>
<glyph name="Oslash" format="1">
  <advance width="1525"/>
  <unicode hex="00D8"/>
  <outline>
    <contour>
      <point x="538.36" y="17.8096" type="line" smooth="yes"/>
      <point x="276.242" y="119.817"/>
      <point x="45" y="411.704"/>
      <point x="45" y="810.838" type="curve" smooth="yes"/>
      <point x="45" y="1322.62"/>
      <point x="334.227" y="1653"/>
      <point x="762.951" y="1653" type="curve" smooth="yes"/>
      <point x="795.739" y="1653"/>
      <point x="825.386" y="1650.83"/>
      <point x="857.413" y="1646.39" type="curve" smooth="yes"/>
      <point x="898.494" y="1640.7" type="line"/>
      <point x="931.206" y="1795.49" type="line"/>
      <point x="979.17" y="1785.07" type="line"/>
      <point x="947.613" y="1623.21" type="line"/>
      <point x="989.11" y="1608.95" type="line"/>
      <point x="1270.07" y="1513.58"/>
      <point x="1480" y="1232.41"/>
      <point x="1480" y="808.388" type="curve" smooth="yes"/>
      <point x="1480" y="327.496"/>
      <point x="1169.31" y="-20.5693"/>
      <point x="762.049" y="-20.5693" type="curve" smooth="yes"/>
      <point x="731.899" y="-20.5693"/>
      <point x="702.418" y="-18.5754"/>
      <point x="673.573" y="-14.6094" type="curve" smooth="yes"/>
      <point x="632.286" y="-8.93262" type="line"/>
      <point x="599.135" y="-183.269" type="line"/>
      <point x="543.297" y="-168.372" type="line"/>
      <point x="578.503" y="2.10156" type="line"/>
    </contour>
    <contour>
      <point x="732.694" y="1345" type="line"/>
      <point x="730.068" y="1337.73" type="line"/>
      <point x="528.594" y="1308.03"/>
      <point x="517.216" y="1031.23"/>
      <point x="527.415" y="852.371" type="curve"/>
      <point x="527.415" y="694.5" type="line" smooth="yes"/>
      <point x="527.415" y="594.625"/>
      <point x="535.683" y="491.636"/>
      <point x="571.078" y="413.192" type="curve" smooth="yes"/>
      <point x="628.267" y="286.451" type="line"/>
      <point x="847.556" y="1336.98" type="line"/>
      <point x="795.506" y="1342.75" type="line" smooth="yes"/>
      <point x="785.901" y="1343.81"/>
      <point x="775.723" y="1345"/>
      <point x="763.854" y="1345" type="curve" smooth="yes"/>
    </contour>
    <contour>
      <point x="674.247" y="258" type="curve"/>
      <point x="760.244" y="258" type="line" smooth="yes"/>
      <point x="1002.87" y="258"/>
      <point x="1002.4" y="594.271"/>
      <point x="997.585" y="782.726" type="curve"/>
      <point x="997.585" y="932" type="line" smooth="yes"/>
      <point x="997.585" y="1031.09"/>
      <point x="985.282" y="1123.36"/>
      <point x="955.866" y="1198.33" type="curve" smooth="yes"/>
      <point x="899.62" y="1341.69" type="line"/>
      <point x="683.847" y="275.595" type="line"/>
      <point x="681.71" y="272.043"/>
      <point x="677.464" y="263.348"/>
    </contour>
  </outline>
</glyph>
<glyph name="germandbls" format="1">
  <advance width="1495"/>
  <unicode hex="00DF"/>
  <outline>
    <contour>
      <point x="775.276" y="848.496" type="curve"/>
      <point x="774.264" y="905.139" type="line"/>
      <point x="882.736" y="934.059"/>
      <point x="966.983" y="1051.57"/>
      <point x="966.983" y="1173" type="curve" smooth="yes"/>
      <point x="966.983" y="1288.77"/>
      <point x="900.977" y="1376"/>
      <point x="789.655" y="1376" type="curve" smooth="yes"/>
      <point x="687.517" y="1376"/>
      <point x="615.79" y="1301.13"/>
      <point x="615.927" y="1181.93" type="curve" smooth="yes"/>
      <point x="616.886" y="349" type="line"/>
      <point x="752.749" y="349" type="line"/>
      <point x="752.749" y="102" type="line"/>
      <point x="54" y="102" type="line"/>
      <point x="54" y="369" type="line"/>
      <point x="226" y="369" type="line"/>
      <point x="226" y="1143" type="line" smooth="yes"/>
      <point x="226" y="1471.16"/>
      <point x="385.44" y="1594.9"/>
      <point x="664.98" y="1619" type="curve"/>
      <point x="759.95" y="1619" type="line" smooth="yes"/>
      <point x="964.899" y="1619"/>
      <point x="1120.89" y="1567.55"/>
      <point x="1210.71" y="1470.12" type="curve" smooth="yes"/>
      <point x="1257.47" y="1419.39"/>
      <point x="1290" y="1366.17"/>
      <point x="1290" y="1286" type="curve" smooth="yes"/>
      <point x="1290" y="1155.71"/>
      <point x="1196.43" y="1051.26"/>
      <point x="1102.8" y="992.383" type="curve" smooth="yes"/>
      <point x="1011.99" y="935.281" type="line"/>
      <point x="1111.24" y="899.491" type="line"/>
      <point x="1293.56" y="836.418"/>
      <point x="1465" y="687.97"/>
      <point x="1465" y="477" type="curve" smooth="yes"/>
      <point x="1465" y="220.33"/>
      <point x="1225.7" y="95.6341"/>
      <point x="968.656" y="82.1836" type="curve"/>
      <point x="967.955" y="368.117" type="line"/>
      <point x="1047.25" y="423.898"/>
      <point x="1098.4" y="493.994"/>
      <point x="1098.4" y="581" type="curve" smooth="yes"/>
      <point x="1098.4" y="770.546"/>
      <point x="923.784" y="838.358"/>
    </contour>
  </outline>
</glyph>
<glyph name="thorn" format="1">
  <advance width="1202"/>
  <unicode hex="00FE"/>
  <outline>
    <contour>
      <point x="788.395" y="1056.91" type="curve" smooth="yes"/>
      <point x="1025.39" y="1056.91"/>
      <point x="1167.83" y="830.121"/>
      <point x="1167.83" y="534.473" type="curve" smooth="yes"/>
      <point x="1167.83" y="234.124"/>
      <point x="1026.83" y="3.50977"/>
      <point x="787.534" y="3.50977" type="curve" smooth="yes"/>
      <point x="686.241" y="3.50977"/>
      <point x="592.028" y="60.2656"/>
      <point x="552.975" y="119.865" type="curve" smooth="yes"/>
      <point x="474.956" y="238.933" type="line"/>
      <point x="474.956" y="-198" type="line"/>
      <point x="570.538" y="-198" type="line"/>
      <point x="570.538" y="-397.075" type="line"/>
      <point x="44" y="-397.924" type="line"/>
      <point x="44.6621" y="-198" type="line"/>
      <point x="128.831" y="-198" type="line"/>
      <point x="128.831" y="1241" type="line"/>
      <point x="54.8311" y="1241" type="line"/>
      <point x="54.8311" y="1445" type="line"/>
      <point x="485.29" y="1445" type="line"/>
      <point x="485.29" y="921.5" type="line"/>
      <point x="556.598" y="921.5" type="line"/>
      <point x="569.572" y="938.317" type="line" smooth="yes"/>
      <point x="629.875" y="1016.48"/>
      <point x="678.971" y="1056.91"/>
    </contour>
    <contour>
      <point x="633.398" y="787" type="curve" smooth="yes"/>
      <point x="546.356" y="787"/>
      <point x="496.836" y="724.531"/>
      <point x="475.818" y="651.276" type="curve"/>
      <point x="475.818" y="423.125" type="line"/>
      <point x="473.103" y="419.974" type="line"/>
      <point x="475.174" y="395.926" type="line" smooth="yes"/>
      <point x="482.914" y="306.043"/>
      <point x="561.095" y="255"/>
      <point x="629.953" y="255" type="curve" smooth="yes"/>
      <point x="776.589" y="255"/>
      <point x="817.672" y="411.428"/>
      <point x="817.672" y="542" type="curve" smooth="yes"/>
      <point x="817.672" y="688.44"/>
      <point x="753.552" y="787"/>
    </contour>
  </outline>
</glyph>
<glyph name="dotlessi" format="1">
  <advance width="644"/>
  <unicode hex="0131"/>
  <outline>
    <contour>
      <point x="512" y="248" type="line"/>
      <point x="512" y="1014.95" type="line"/>
      <point x="44" y="962.406" type="line"/>
      <point x="44" y="798" type="line"/>
      <point x="133" y="798" type="line"/>
      <point x="133" y="248" type="line"/>
      <point x="51" y="248" type="line"/>
      <point x="51" y="51" type="line"/>
      <point x="596" y="51" type="line"/>
      <point x="596" y="248" type="line"/>
    </contour>
  </outline>
</glyph>
<glyph name="kgreenlandic" format="1">
  <advance width="1203"/>
  <unicode hex="0138"/>
  <outline>
    <contour>
      <point x="805.42" y="51" type="line"/>
      <point x="551.286" y="492.216" type="line"/>
      <point x="811.092" y="812" type="line"/>
      <point x="671.077" y="812" type="line"/>
      <point x="671.077" y="1021" type="line"/>
      <point x="1162" y="1021" type="line"/>
      <point x="1162" y="812" type="line"/>
      <point x="1020.21" y="812" type="line"/>
      <point x="1005.15" y="796.257" type="line" smooth="yes"/>
      <point x="950.094" y="738.713"/>
      <point x="892.957" y="669.461"/>
      <point x="846.1" y="613.458" type="curve" smooth="yes"/>
      <point x="819.989" y="582.25" type="line"/>
      <point x="1050.44" y="250" type="line"/>
      <point x="1180" y="250" type="line"/>
      <point x="1180" y="51" type="line"/>
    </contour>
    <contour>
      <point x="35" y="961.302" type="line"/>
      <point x="491.159" y="1015.08" type="line"/>
      <point x="491.159" y="51" type="line"/>
      <point x="36" y="51" type="line"/>
      <point x="36" y="250" type="line"/>
      <point x="139" y="250" type="line"/>
      <point x="139" y="785" type="line"/>
      <point x="35" y="785" type="line"/>
    </contour>
  </outline>
</glyph>
<glyph name="Lslash" format="1">
  <advance width="1194"/>
  <unicode hex="0141"/>
  <outline>
    <contour>
      <point x="601.443" y="359" type="line"/>
      <point x="842.09" y="359" type="line"/>
      <point x="923.771" y="709" type="line"/>
      <point x="1118.9" y="709" type="line"/>
      <point x="1118.9" y="102" type="line"/>
      <point x="49.7549" y="102" type="line"/>
      <point x="49.0391" y="359" type="line"/>
      <point x="191.896" y="359" type="line"/>
      <point x="191.896" y="662.699" type="line"/>
      <point x="82.0449" y="599.041" type="line"/>
      <point x="32" y="688.121" type="line"/>
      <point x="191.896" y="780.857" type="line"/>
      <point x="191.896" y="1372" type="line"/>
      <point x="44.8965" y="1372" type="line"/>
      <point x="44.8965" y="1622" type="line"/>
      <point x="732.919" y="1622" type="line"/>
      <point x="732.919" y="1372" type="line"/>
      <point x="601.443" y="1372" type="line"/>
      <point x="601.443" y="1050.55" type="line"/>
      <point x="734.253" y="1140.77" type="line"/>
      <point x="776.611" y="1051.06" type="line"/>
      <point x="601.443" y="932.163" type="line"/>
    </contour>
  </outline>
</glyph>
<glyph name="oe" format="1">
  <advance width="1706"/>
  <unicode hex="0153"/>
  <outline>
    <contour>
      <point x="1186.02" y="1026" type="curve" smooth="yes"/>
      <point x="1473.18" y="1026"/>
      <point x="1667" y="841.346"/>
      <point x="1667" y="541" type="curve" smooth="yes"/>
      <point x="1667" y="519.242"/>
      <point x="1667.05" y="497.326"/>
      <point x="1664.96" y="485" type="curve"/>
      <point x="1055.67" y="485" type="line"/>
      <point x="1055.67" y="434" type="line" smooth="yes"/>
      <point x="1055.67" y="303.832"/>
      <point x="1124.26" y="158"/>
      <point x="1265.88" y="158" type="curve" smooth="yes"/>
      <point x="1357.06" y="158"/>
      <point x="1421.83" y="209.644"/>
      <point x="1438.46" y="301" type="curve"/>
      <point x="1648" y="301" type="line"/>
      <point x="1648" y="143.354" type="line"/>
      <point x="1499.46" y="58.9248"/>
      <point x="1376.93" y="20"/>
      <point x="1172.4" y="20" type="curve" smooth="yes"/>
      <point x="1054.64" y="20"/>
      <point x="965.798" y="77.2637"/>
      <point x="916.892" y="143.859" type="curve" smooth="yes"/>
      <point x="879.14" y="195.266" type="line"/>
      <point x="842.881" y="142.6" type="line" smooth="yes"/>
      <point x="799.309" y="79.3125"/>
      <point x="684.055" y="25"/>
      <point x="559.044" y="25" type="curve" smooth="yes"/>
      <point x="512.227" y="25" type="line"/>
      <point x="512.227" y="18.4805" type="line"/>
      <point x="224.017" y="36.8584"/>
      <point x="34" y="215.631"/>
      <point x="34" y="531" type="curve" smooth="yes"/>
      <point x="34" y="855.12"/>
      <point x="242.749" y="1024"/>
      <point x="559.962" y="1024" type="curve" smooth="yes"/>
      <point x="691.264" y="1024"/>
      <point x="790.949" y="977.392"/>
      <point x="853.985" y="913.628" type="curve" smooth="yes"/>
      <point x="887.045" y="880.186" type="line"/>
      <point x="918.946" y="914.938" type="line" smooth="yes"/>
      <point x="976.467" y="977.599"/>
      <point x="1060.63" y="1026"/>
    </contour>
    <contour>
      <point x="729.787" y="528" type="curve" smooth="yes"/>
      <point x="729.787" y="640.447"/>
      <point x="701.191" y="774"/>
      <point x="558.126" y="774" type="curve" smooth="yes"/>
      <point x="428.945" y="774"/>
      <point x="391.342" y="662.197"/>
      <point x="387.085" y="560.857" type="curve"/>
      <point x="384.629" y="559.52" type="line"/>
      <point x="384.629" y="528" type="line" smooth="yes"/>
      <point x="384.629" y="380.229"/>
      <point x="435.926" y="266"/>
      <point x="557.208" y="266" type="curve" smooth="yes"/>
      <point x="678.49" y="266"/>
      <point x="729.787" y="380.229"/>
    </contour>
    <contour>
      <point x="1346.66" y="639" type="curve" smooth="yes"/>
      <point x="1346.66" y="721.955"/>
      <point x="1319.55" y="846"/>
      <point x="1200.71" y="846" type="curve" smooth="yes"/>
      <point x="1088.48" y="846"/>
      <point x="1054.75" y="719.147"/>
      <point x="1054.75" y="638" type="curve" smooth="yes"/>
      <point x="1054.75" y="556" type="line"/>
      <point x="1343.07" y="556" type="line"/>
      <point x="1345.67" y="604.005" type="line" smooth="yes"/>
      <point x="1346.32" y="616.217"/>
      <point x="1346.66" y="627.867"/>
    </contour>
  </outline>
</glyph>
<glyph name="circumflex" format="1">
  <advance width="719"/>
  <unicode hex="02C6"/>
  <outline>
    <contour>
      <point x="392.367" y="1659" type="line"/>
      <point x="275.304" y="1659" type="line"/>
      <point x="49" y="1347.31" type="line"/>
      <point x="124.286" y="1297.94" type="line"/>
      <point x="334.286" y="1548.72" type="line"/>
      <point x="544.329" y="1297.94" type="line"/>
      <point x="619.537" y="1347.26" type="line"/>
    </contour>
  </outline>
</glyph>
<glyph name="uni030F" format="1">
  <advance width="807"/>
  <unicode hex="030F"/>
  <outline>
    <contour>
      <point x="264.008" y="1241.03" type="line"/>
      <point x="310.107" y="1267.78" type="line"/>
      <point x="111.324" y="1860.09" type="line"/>
      <point x="-56" y="1696.07" type="line"/>
    </contour>
    <contour>
      <point x="533.665" y="1243.43" type="line"/>
      <point x="613.252" y="1272.38" type="line"/>
      <point x="485.012" y="1892.41" type="line"/>
      <point x="319.18" y="1815.63" type="line"/>
    </contour>
  </outline>
</glyph>
<glyph name="quotesinglbase" format="1">
  <advance width="491"/>
  <unicode hex="201A"/>
  <outline>
    <contour>
      <point x="209.125" y="-395.818" type="curve"/>
      <point x="209.125" y="-272.507" type="line"/>
      <point x="337.35" y="-258.84"/>
      <point x="399.125" y="-175.12"/>
      <point x="399.125" y="-38.5" type="curve" smooth="yes"/>
      <point x="399.125" y="50" type="line"/>
      <point x="210.125" y="50" type="line"/>
      <point x="210.125" y="314" type="line"/>
      <point x="625.028" y="314" type="line"/>
      <point x="636.688" y="228.438"/>
      <point x="642.125" y="155.085"/>
      <point x="642.125" y="88" type="curve" smooth="yes"/>
      <point x="642.125" y="-243.156"/>
      <point x="514.67" y="-380.994"/>
    </contour>
    <contour>
      <point x="209.125" y="-169.381" type="move"/>
      <point x="209.125" y="-99.875" type="line"/>
      <point x="34" y="-275" type="line"/>
      <point x="106.484" y="-275" type="line"/>
    </contour>
  </outline>
</glyph>
<glyph name="foursuperior" format="1">
  <advance width="718"/>
  <outline>
    <contour>
      <point x="533" y="404" type="line"/>
      <point x="533" y="583" type="line"/>
      <point x="667" y="583" type="line"/>
      <point x="667" y="631.615" type="line"/>
      <point x="534" y="630.615" type="line"/>
      <point x="534" y="1022.2" type="line"/>
      <point x="350.62" y="1022.91" type="line"/>
      <point x="54" y="671.358" type="line"/>
      <point x="54" y="583" type="line"/>
      <point x="367" y="583" type="line"/>
      <point x="367" y="404" type="line"/>
      <point x="293" y="404" type="line"/>
      <point x="293" y="337" type="line"/>
      <point x="605" y="337" type="line"/>
      <point x="605" y="404" type="line"/>
    </contour>
    <contour>
      <point x="367" y="631.538" type="line"/>
      <point x="98.8135" y="633.954" type="line"/>
      <point x="367" y="964.96" type="line"/>
    </contour>
  </outline>
</glyph>
